<?xml version="1.0" encoding="UTF-8" standalone="no"?>
<!DOCTYPE svg PUBLIC "-//W3C//DTD SVG 1.1//EN"
 "http://www.w3.org/Graphics/SVG/1.1/DTD/svg11.dtd">
<!-- Generated by graphviz version 2.38.0 (20140413.2041)
 -->
<!-- Title: ssids Pages: 1 -->
<svg width="2899pt" height="116pt"
 viewBox="0.00 0.00 2898.69 116.00" xmlns="http://www.w3.org/2000/svg" xmlns:xlink="http://www.w3.org/1999/xlink">
<g id="graph0" class="graph" transform="scale(1 1) rotate(0) translate(4 112)">
<title>ssids</title>
<polygon fill="white" stroke="none" points="-4,4 -4,-112 2894.69,-112 2894.69,4 -4,4"/>
<!-- a -->
<g id="node1" class="node"><title>a</title>
<ellipse fill="none" stroke="black" cx="71.4937" cy="-90" rx="71.4873" ry="18"/>
<text text-anchor="middle" x="71.4937" y="-86.3" font-family="Times,serif" font-size="14.00">00:db:df:06:e4:65</text>
</g>
<!-- b -->
<g id="node2" class="node"><title>b</title>
<ellipse fill="none" stroke="black" cx="71.4937" cy="-18" rx="46.2923" ry="18"/>
<text text-anchor="middle" x="71.4937" y="-14.3" font-family="Times,serif" font-size="14.00">Southside</text>
</g>
<!-- a&#45;&gt;b -->
<g id="edge1" class="edge"><title>a&#45;&gt;b</title>
<path fill="none" stroke="black" d="M71.4937,-71.6966C71.4937,-63.9827 71.4937,-54.7125 71.4937,-46.1124"/>
<polygon fill="black" stroke="black" points="74.9938,-46.1043 71.4937,-36.1043 67.9938,-46.1044 74.9938,-46.1043"/>
</g>
<!-- c -->
<g id="node3" class="node"><title>c</title>
<ellipse fill="none" stroke="black" cx="233.494" cy="-90" rx="72.5877" ry="18"/>
<text text-anchor="middle" x="233.494" y="-86.3" font-family="Times,serif" font-size="14.00">18:34:51:3d:e7:04</text>
</g>
<!-- c&#45;&gt;c -->
<g id="edge2" class="edge"><title>c&#45;&gt;c</title>
<path fill="none" stroke="black" d="M282.991,-103.289C305.135,-104.555 324.287,-100.125 324.287,-90 324.287,-81.457 310.653,-76.9686 293.09,-76.5348"/>
<polygon fill="black" stroke="black" points="292.929,-73.037 282.991,-76.7109 293.051,-80.0359 292.929,-73.037"/>
</g>
<!-- d -->
<g id="node4" class="node"><title>d</title>
<ellipse fill="none" stroke="black" cx="413.494" cy="-90" rx="71.4873" ry="18"/>
<text text-anchor="middle" x="413.494" y="-86.3" font-family="Times,serif" font-size="14.00">18:3d:a2:4b:10:cc</text>
</g>
<!-- e -->
<g id="node5" class="node"><title>e</title>
<ellipse fill="none" stroke="black" cx="413.494" cy="-18" rx="59.2899" ry="18"/>
<text text-anchor="middle" x="413.494" y="-14.3" font-family="Times,serif" font-size="14.00">apdatamobile</text>
</g>
<!-- d&#45;&gt;e -->
<g id="edge3" class="edge"><title>d&#45;&gt;e</title>
<path fill="none" stroke="black" d="M413.494,-71.6966C413.494,-63.9827 413.494,-54.7125 413.494,-46.1124"/>
<polygon fill="black" stroke="black" points="416.994,-46.1043 413.494,-36.1043 409.994,-46.1044 416.994,-46.1043"/>
</g>
<!-- f -->
<g id="node6" class="node"><title>f</title>
<ellipse fill="none" stroke="black" cx="574.494" cy="-90" rx="71.4873" ry="18"/>
<text text-anchor="middle" x="574.494" y="-86.3" font-family="Times,serif" font-size="14.00">1c:1a:c0:87:00:ba</text>
</g>
<!-- g -->
<g id="node7" class="node"><title>g</title>
<ellipse fill="none" stroke="black" cx="574.494" cy="-18" rx="35.9954" ry="18"/>
<text text-anchor="middle" x="574.494" y="-14.3" font-family="Times,serif" font-size="14.00">linksys</text>
</g>
<!-- f&#45;&gt;g -->
<g id="edge4" class="edge"><title>f&#45;&gt;g</title>
<path fill="none" stroke="black" d="M574.494,-71.6966C574.494,-63.9827 574.494,-54.7125 574.494,-46.1124"/>
<polygon fill="black" stroke="black" points="577.994,-46.1043 574.494,-36.1043 570.994,-46.1044 577.994,-46.1043"/>
</g>
<!-- h -->
<g id="node8" class="node"><title>h</title>
<ellipse fill="none" stroke="black" cx="736.494" cy="-90" rx="72.5877" ry="18"/>
<text text-anchor="middle" x="736.494" y="-86.3" font-family="Times,serif" font-size="14.00">20:c9:d0:79:30:7d</text>
</g>
<!-- h&#45;&gt;h -->
<g id="edge5" class="edge"><title>h&#45;&gt;h</title>
<path fill="none" stroke="black" d="M785.991,-103.289C808.135,-104.555 827.287,-100.125 827.287,-90 827.287,-81.457 813.653,-76.9686 796.09,-76.5348"/>
<polygon fill="black" stroke="black" points="795.929,-73.037 785.991,-76.7109 796.051,-80.0359 795.929,-73.037"/>
</g>
<!-- i -->
<g id="node9" class="node"><title>i</title>
<ellipse fill="none" stroke="black" cx="918.494" cy="-90" rx="72.5877" ry="18"/>
<text text-anchor="middle" x="918.494" y="-86.3" font-family="Times,serif" font-size="14.00">34:31:11:a8:60:22</text>
</g>
<!-- j -->
<g id="node10" class="node"><title>j</title>
<ellipse fill="none" stroke="black" cx="918.494" cy="-18" rx="87.9851" ry="18"/>
<text text-anchor="middle" x="918.494" y="-14.3" font-family="Times,serif" font-size="14.00">TWCWiFi&#45;Passpoint</text>
</g>
<!-- i&#45;&gt;j -->
<g id="edge6" class="edge"><title>i&#45;&gt;j</title>
<path fill="none" stroke="black" d="M918.494,-71.6966C918.494,-63.9827 918.494,-54.7125 918.494,-46.1124"/>
<polygon fill="black" stroke="black" points="921.994,-46.1043 918.494,-36.1043 914.994,-46.1044 921.994,-46.1043"/>
</g>
<!-- k -->
<g id="node11" class="node"><title>k</title>
<ellipse fill="none" stroke="black" cx="1123.49" cy="-90" rx="72.2875" ry="18"/>
<text text-anchor="middle" x="1123.49" y="-86.3" font-family="Times,serif" font-size="14.00">34:51:c9:67:a8:b3</text>
</g>
<!-- l -->
<g id="node12" class="node"><title>l</title>
<ellipse fill="none" stroke="black" cx="1123.49" cy="-18" rx="98.5829" ry="18"/>
<text text-anchor="middle" x="1123.49" y="-14.3" font-family="Times,serif" font-size="14.00">Samsung Galaxy S III 33</text>
</g>
<!-- k&#45;&gt;l -->
<g id="edge7" class="edge"><title>k&#45;&gt;l</title>
<path fill="none" stroke="black" d="M1123.49,-71.6966C1123.49,-63.9827 1123.49,-54.7125 1123.49,-46.1124"/>
<polygon fill="black" stroke="black" points="1126.99,-46.1043 1123.49,-36.1043 1119.99,-46.1044 1126.99,-46.1043"/>
</g>
<!-- m -->
<g id="node13" class="node"><title>m</title>
<ellipse fill="none" stroke="black" cx="1359.49" cy="-90" rx="70.3881" ry="18"/>
<text text-anchor="middle" x="1359.49" y="-86.3" font-family="Times,serif" font-size="14.00">58:1f:aa:57:b3:6e</text>
</g>
<!-- n -->
<g id="node14" class="node"><title>n</title>
<ellipse fill="none" stroke="black" cx="1359.49" cy="-18" rx="119.679" ry="18"/>
<text text-anchor="middle" x="1359.49" y="-14.3" font-family="Times,serif" font-size="14.00">Chelsea Market Public Access</text>
</g>
<!-- m&#45;&gt;n -->
<g id="edge8" class="edge"><title>m&#45;&gt;n</title>
<path fill="none" stroke="black" d="M1359.49,-71.6966C1359.49,-63.9827 1359.49,-54.7125 1359.49,-46.1124"/>
<polygon fill="black" stroke="black" points="1362.99,-46.1043 1359.49,-36.1043 1355.99,-46.1044 1362.99,-46.1043"/>
</g>
<!-- o -->
<g id="node15" class="node"><title>o</title>
<ellipse fill="none" stroke="black" cx="1520.49" cy="-90" rx="72.5877" ry="18"/>
<text text-anchor="middle" x="1520.49" y="-86.3" font-family="Times,serif" font-size="14.00">58:bd:a3:7d:4b:36</text>
</g>
<!-- o&#45;&gt;o -->
<g id="edge9" class="edge"><title>o&#45;&gt;o</title>
<path fill="none" stroke="black" d="M1569.99,-103.289C1592.14,-104.555 1611.29,-100.125 1611.29,-90 1611.29,-81.457 1597.65,-76.9686 1580.09,-76.5348"/>
<polygon fill="black" stroke="black" points="1579.93,-73.037 1569.99,-76.7109 1580.05,-80.0359 1579.93,-73.037"/>
</g>
<!-- p -->
<g id="node16" class="node"><title>p</title>
<ellipse fill="none" stroke="black" cx="1701.49" cy="-90" rx="72.2875" ry="18"/>
<text text-anchor="middle" x="1701.49" y="-86.3" font-family="Times,serif" font-size="14.00">64:20:0c:d3:11:a0</text>
</g>
<!-- q -->
<g id="node17" class="node"><title>q</title>
<ellipse fill="none" stroke="black" cx="1701.49" cy="-18" rx="92.8835" ry="18"/>
<text text-anchor="middle" x="1701.49" y="-14.3" font-family="Times,serif" font-size="14.00">florencioinc&#39;s Network</text>
</g>
<!-- p&#45;&gt;q -->
<g id="edge10" class="edge"><title>p&#45;&gt;q</title>
<path fill="none" stroke="black" d="M1701.49,-71.6966C1701.49,-63.9827 1701.49,-54.7125 1701.49,-46.1124"/>
<polygon fill="black" stroke="black" points="1704.99,-46.1043 1701.49,-36.1043 1697.99,-46.1044 1704.99,-46.1043"/>
</g>
<!-- r -->
<g id="node18" class="node"><title>r</title>
<ellipse fill="none" stroke="black" cx="1959.49" cy="-90" rx="72.2875" ry="18"/>
<text text-anchor="middle" x="1959.49" y="-86.3" font-family="Times,serif" font-size="14.00">9e:e6:35:02:9b:bb</text>
</g>
<!-- s -->
<g id="node19" class="node"><title>s</title>
<ellipse fill="none" stroke="black" cx="1959.49" cy="-18" rx="147.574" ry="18"/>
<text text-anchor="middle" x="1959.49" y="-14.3" font-family="Times,serif" font-size="14.00">Nintendo_3DS_continuous_scan_000</text>
</g>
<!-- r&#45;&gt;s -->
<g id="edge11" class="edge"><title>r&#45;&gt;s</title>
<path fill="none" stroke="black" d="M1959.49,-71.6966C1959.49,-63.9827 1959.49,-54.7125 1959.49,-46.1124"/>
<polygon fill="black" stroke="black" points="1962.99,-46.1043 1959.49,-36.1043 1955.99,-46.1044 1962.99,-46.1043"/>
</g>
<!-- t -->
<g id="node20" class="node"><title>t</title>
<ellipse fill="none" stroke="black" cx="2275.49" cy="-90" rx="72.2875" ry="18"/>
<text text-anchor="middle" x="2275.49" y="-86.3" font-family="Times,serif" font-size="14.00">b8:e9:37:20:a8:41</text>
</g>
<!-- u -->
<g id="node21" class="node"><title>u</title>
<ellipse fill="none" stroke="black" cx="2275.49" cy="-18" rx="150.574" ry="18"/>
<text text-anchor="middle" x="2275.49" y="-14.3" font-family="Times,serif" font-size="14.00">Sonos_zIcAsg8fPxfLgSgyGLh93BoIJ0</text>
</g>
<!-- t&#45;&gt;u -->
<g id="edge12" class="edge"><title>t&#45;&gt;u</title>
<path fill="none" stroke="black" d="M2275.49,-71.6966C2275.49,-63.9827 2275.49,-54.7125 2275.49,-46.1124"/>
<polygon fill="black" stroke="black" points="2278.99,-46.1043 2275.49,-36.1043 2271.99,-46.1044 2278.99,-46.1043"/>
</g>
<!-- v -->
<g id="node22" class="node"><title>v</title>
<ellipse fill="none" stroke="black" cx="2499.49" cy="-90" rx="71.4873" ry="18"/>
<text text-anchor="middle" x="2499.49" y="-86.3" font-family="Times,serif" font-size="14.00">bc:20:a4:7d:be:7e</text>
</g>
<!-- w -->
<g id="node23" class="node"><title>w</title>
<ellipse fill="none" stroke="black" cx="2499.49" cy="-18" rx="55.4913" ry="18"/>
<text text-anchor="middle" x="2499.49" y="-14.3" font-family="Times,serif" font-size="14.00">mb611 7474</text>
</g>
<!-- v&#45;&gt;w -->
<g id="edge13" class="edge"><title>v&#45;&gt;w</title>
<path fill="none" stroke="black" d="M2499.49,-71.6966C2499.49,-63.9827 2499.49,-54.7125 2499.49,-46.1124"/>
<polygon fill="black" stroke="black" points="2502.99,-46.1043 2499.49,-36.1043 2495.99,-46.1044 2502.99,-46.1043"/>
</g>
<!-- x -->
<g id="node24" class="node"><title>x</title>
<ellipse fill="none" stroke="black" cx="2660.49" cy="-90" rx="71.4873" ry="18"/>
<text text-anchor="middle" x="2660.49" y="-86.3" font-family="Times,serif" font-size="14.00">cc:3a:61:15:9a:b4</text>
</g>
<!-- y -->
<g id="node25" class="node"><title>y</title>
<ellipse fill="none" stroke="black" cx="2660.49" cy="-18" rx="46.2923" ry="18"/>
<text text-anchor="middle" x="2660.49" y="-14.3" font-family="Times,serif" font-size="14.00">maasbach</text>
</g>
<!-- x&#45;&gt;y -->
<g id="edge14" class="edge"><title>x&#45;&gt;y</title>
<path fill="none" stroke="black" d="M2660.49,-71.6966C2660.49,-63.9827 2660.49,-54.7125 2660.49,-46.1124"/>
<polygon fill="black" stroke="black" points="2663.99,-46.1043 2660.49,-36.1043 2656.99,-46.1044 2663.99,-46.1043"/>
</g>
<!-- z -->
<g id="node26" class="node"><title>z</title>
<ellipse fill="none" stroke="black" cx="2820.49" cy="-90" rx="70.3881" ry="18"/>
<text text-anchor="middle" x="2820.49" y="-86.3" font-family="Times,serif" font-size="14.00">fc:c2:de:26:b4:38</text>
</g>
<!-- aa -->
<g id="node27" class="node"><title>aa</title>
<ellipse fill="none" stroke="black" cx="2820.49" cy="-18" rx="27" ry="18"/>
<text text-anchor="middle" x="2820.49" y="-14.3" font-family="Times,serif" font-size="14.00">raj</text>
</g>
<!-- z&#45;&gt;aa -->
<g id="edge15" class="edge"><title>z&#45;&gt;aa</title>
<path fill="none" stroke="black" d="M2820.49,-71.6966C2820.49,-63.9827 2820.49,-54.7125 2820.49,-46.1124"/>
<polygon fill="black" stroke="black" points="2823.99,-46.1043 2820.49,-36.1043 2816.99,-46.1044 2823.99,-46.1043"/>
</g>
</g>
</svg>
